# xmcd
#
# Track frame offsets: 
#        150
#        6547
#        23146
#        48293
#        68622
#        88873
#        105856
#        125590
#        144624
#        173105
#        196469
#        216745
#
# Disc length: 3182 seconds
#
# Revision: 3
# Processed by: cddbd v1.5.1PL0 Copyright (c) Steve Scherf et al.
# Submitted via: ExactAudioCopy v0.95a5
#
DISCID=ac0c6c0c
DTITLE=彭佳慧 - 情歌手
DYEAR=1900
DGENRE=blues
TTITLE0=Opening
TTITLE1=亮晶晶
TTITLE2=喜歡兩個人
TTITLE3=情歌手
TTITLE4=請保持微笑
TTITLE5=路人
TTITLE6=態度
TTITLE7=訊息
TTITLE8=經過
TTITLE9=好預兆
TTITLE10=別問我愛誰
TTITLE11=Can't Stop Christmas
EXTD=
EXTT0=
EXTT1=
EXTT2=
EXTT3=
EXTT4=
EXTT5=
EXTT6=
EXTT7=
EXTT8=
EXTT9=
EXTT10=
EXTT11=
PLAYORDER=
